<svg width="241" height="184" viewBox="0 0 241 184" fill="none" xmlns="http://www.w3.org/2000/svg">
<path d="M219.908 139.779H187.112L184.665 135.297L169.347 106.366H169.306C159.683 87.9838 149.916 69.6427 142.041 54.7355C132.027 36.4149 125.92 24.6536 121.726 15.8737L101.205 55.7019C93.3916 70.7325 83.9949 88.5801 74.5159 106.366L73.385 108.463C71.9868 111.116 70.568 113.768 69.1493 116.38L57.7375 137.641H57.6758C56.9973 138.895 56.3598 140.129 55.7019 141.383L54.1597 144.364C45.1742 161.451 37.6281 175.577 33.9681 183.349H0C26.1751 140.601 86.7707 27.6145 100.732 0H142.802C156.084 24.0367 191.554 89.4437 219.908 139.779Z" fill="#EDECF4"/>
<path d="M121.396 53.3372L105.666 82.391L159.764 183.37H240.88L227.433 157.071L177.057 157.236L121.396 53.3372Z" fill="url(#paint0_linear_1619_216)"/>
<defs>
<linearGradient id="paint0_linear_1619_216" x1="240.883" y1="118.35" x2="105.666" y2="118.35" gradientUnits="userSpaceOnUse">
<stop offset="0.1229" stop-color="#DA4D26"/>
<stop offset="0.5114" stop-color="#E66525"/>
<stop offset="0.9442" stop-color="#F47B21"/>
</linearGradient>
</defs>
</svg>
